<svg width="202" height="244" viewBox="0 0 202 244" fill="none" xmlns="http://www.w3.org/2000/svg">
<path fill-rule="evenodd" clip-rule="evenodd" d="M95.4524 9.05627H0.496094V205.821H101.326V240.574H187.472V244H201.666V9.05627H121.883V23.2508H138.525V45.2767H142.931V23.2508H187.472V76.1131H142.931V65.8343H138.525V76.1131H135.099V81.0077H187.472V186.243H156.636V201.416H155.167V205.821H187.472V235.679H105.731V205.821H115.031V201.416H113.073V185.753H107.689V81.0077H111.605V76.1131H107.689V62.408H100.347V66.8132H103.773V185.753H83.2157V201.906H81.2579V204.843H45.0374V201.906H43.0796V185.753H11.7538V66.8132H65.595V62.408H64.1266V55.5555H59.7214V62.408H11.7538V23.2508H59.7214V34.998H63.6371V23.2508H95.4524V9.05627Z" fill="#EBEBEB"/>
<path d="M0.496094 9.05638H64.1266V9.54584H0.496094V9.05638Z" fill="#606066"/>
<path d="M95.4524 8.81165H72.937V9.30111H94.7182V22.2719H10.7749V186.732H113.073V185.753H11.7538V23.0061H95.4524V8.81165Z" fill="#606066"/>
<path d="M0.496094 22.2719H1.47502V154.428H0.496094V22.2719Z" fill="#606066"/>
<path d="M59.7214 34.9981V23.2509H60.7003V34.0191H62.6582V23.2509H63.6371V34.9981H59.7214Z" fill="#606066"/>
<path d="M59.7214 62.4081H11.7538V63.3871H60.7003V56.5345H63.1477V63.3871H64.6161V65.8344H11.7538V66.8133H65.595V62.4081H64.1266V55.5556H59.7214V62.4081Z" fill="#606066"/>
<path d="M115.031 205.822H0.496094V204.843H114.052V202.395H112.094V186.732H113.073V201.416H115.031V205.822Z" fill="#606066"/>
<path d="M43.0796 186.732H42.1007V202.885H44.0585V204.843H45.0374V201.906H43.0796V186.732Z" fill="#606066"/>
<path d="M83.2157 186.732H84.1947V202.885H82.2368V204.843H81.2579V201.906H83.2157V186.732Z" fill="#606066"/>
<path fill-rule="evenodd" clip-rule="evenodd" d="M101.326 205.822V240.574H187.472V244H201.666V204.843H201.177V243.021H188.451V204.843H187.472H156.146V202.395H157.614V187.222H188.696V186.243H187.472H172.298H171.809H132.652V204.843H132.162V205.822H155.167H187.472V235.679H105.731V205.822H104.752V236.658H187.472V239.595H102.305V205.822H101.326ZM156.636 201.416H155.167V204.843H133.631V187.222H156.636V201.416Z" fill="#606066"/>
<path d="M201.666 187.222H201.177V22.2719H201.666V187.222Z" fill="#606066"/>
<path d="M187.472 186.243H188.696L188.451 22.2719H122.862V10.0353H201.666V9.05638H121.883V23.2509H139.504H141.952H142.931H187.472V76.1132V77.0921V80.0289V81.0078V186.243Z" fill="#606066"/>
<path d="M138.525 23.2509V45.2768H142.931V23.2509H141.952V44.2979H139.504V23.2509H138.525Z" fill="#606066"/>
<path d="M187.472 76.1132H142.931V65.8344H138.525V76.1132H135.099V81.0078H171.809H172.298H187.472V80.0289H136.078V77.0921H139.504V66.8133H141.952V77.0921H187.472V76.1132Z" fill="#606066"/>
<path d="M103.773 185.998V66.8133H100.347V62.4081H107.689V76.1132H111.605V81.0078H107.689V185.998H106.71V80.0289H110.626V77.0921H106.71V63.3871H101.326V65.8344H104.752V185.998H103.773Z" fill="#606066"/>
<path d="M172.298 81.0078H171.809V186.243H172.298V81.0078Z" fill="#606066"/>
<rect x="43.0742" y="198.479" width="40.1362" height="0.489465" fill="#7CAFBA"/>
<rect x="43.0723" y="198.969" width="40.1362" height="0.978931" fill="#BFEBF4"/>
<rect x="45.0234" y="201.905" width="36.2205" height="0.489465" fill="#7CAFBA"/>
<rect x="45.0234" y="202.395" width="36.2205" height="0.978931" fill="#BFEBF4"/>
<rect x="133.621" y="198.479" width="23.0049" height="0.489465" fill="#7CAFBA"/>
<rect x="133.621" y="198.969" width="23.0049" height="0.978931" fill="#BFEBF4"/>
<rect x="133.621" y="201.905" width="21.5365" height="0.489465" fill="#7CAFBA"/>
<rect x="133.621" y="202.395" width="21.5365" height="0.978931" fill="#BFEBF4"/>
<path fill-rule="evenodd" clip-rule="evenodd" d="M186.978 44.7873H176.21V58.0029H186.978V44.7873ZM176.21 44.2979C175.94 44.2979 175.721 44.517 175.721 44.7873V58.0029C175.721 58.2732 175.94 58.4924 176.21 58.4924H187.468V44.2979H176.21Z" fill="#222225"/>
<path fill-rule="evenodd" clip-rule="evenodd" d="M185.016 45.7657H177.185V57.0234H185.016V45.7657ZM177.185 45.2762C176.914 45.2762 176.695 45.4954 176.695 45.7657V57.0234C176.695 57.2937 176.914 57.5129 177.185 57.5129H185.016C185.287 57.5129 185.506 57.2937 185.506 57.0234V45.7657C185.506 45.4954 185.287 45.2762 185.016 45.2762H177.185Z" fill="#222225"/>
<path d="M183.059 50.6615H185.016V52.1299H183.059V50.6615Z" fill="#222225"/>
<path fill-rule="evenodd" clip-rule="evenodd" d="M186.976 49.1921H185.508V54.0868H186.976V49.1921ZM186.487 50.6605H185.997V52.1289H186.487V50.6605Z" fill="#222225"/>
<path fill-rule="evenodd" clip-rule="evenodd" d="M186.993 23.2506L143.431 23.2506L143.431 41.8503H186.993V23.2506ZM143.431 22.7611C143.161 22.7611 142.941 22.9802 142.941 23.2506V41.8503C142.941 42.1206 143.161 42.3397 143.431 42.3397H187.483V22.7611H143.431Z" fill="#222225"/>
<path fill-rule="evenodd" clip-rule="evenodd" d="M184.045 24.7193H151.74C148.496 24.7193 145.866 27.349 145.866 30.5929V34.9981C145.866 38.242 148.496 40.8717 151.74 40.8717H184.045C184.585 40.8717 185.024 40.4334 185.024 39.8928V25.6983C185.024 25.1576 184.585 24.7193 184.045 24.7193ZM151.74 24.2299C148.226 24.2299 145.377 27.0787 145.377 30.5929V34.9981C145.377 38.5123 148.226 41.3612 151.74 41.3612H184.045C184.856 41.3612 185.513 40.7037 185.513 39.8928V25.6983C185.513 24.8873 184.856 24.2299 184.045 24.2299H151.74Z" fill="#222225"/>
<path d="M181.111 32.0612C181.111 31.5206 181.55 31.0823 182.09 31.0823H183.069C183.61 31.0823 184.048 31.5206 184.048 32.0612V33.0401C184.048 33.5808 183.61 34.0191 183.069 34.0191H182.09C181.55 34.0191 181.111 33.5808 181.111 33.0401V32.0612Z" fill="#222225"/>
<path d="M182.574 32.551C182.574 32.2807 182.793 32.0615 183.064 32.0615C183.334 32.0615 183.553 32.2807 183.553 32.551C183.553 32.8213 183.334 33.0405 183.064 33.0405C182.793 33.0405 182.574 32.8213 182.574 32.551Z" fill="white"/>
<path fill-rule="evenodd" clip-rule="evenodd" d="M160.062 26.6771C160.062 26.6771 160.062 26.6771 160.057 26.9218C160.051 27.1664 160.051 27.1664 160.051 27.1664L160.044 27.1663L160.021 27.1659C160 27.1655 159.97 27.1651 159.93 27.1646C159.85 27.1636 159.733 27.1627 159.583 27.1627C159.284 27.1627 158.856 27.1665 158.343 27.1817C157.315 27.2121 155.948 27.2882 154.582 27.4703C153.213 27.6529 151.864 27.9398 150.864 28.3844C149.849 28.8356 149.288 29.4026 149.288 30.1033V35.4874C149.288 35.7306 149.41 35.9672 149.678 36.2026C149.949 36.4401 150.349 36.658 150.853 36.8539C151.859 37.2452 153.214 37.525 154.585 37.7231C155.953 37.9207 157.322 38.0349 158.351 38.0997C158.865 38.132 159.293 38.152 159.593 38.1639C159.743 38.1698 159.86 38.1738 159.94 38.1762C159.98 38.1774 160.011 38.1782 160.031 38.1788L160.054 38.1794L160.062 38.1795C160.062 38.1795 160.062 38.1795 160.057 38.4242C160.051 38.6689 160.051 38.6689 160.051 38.6689L160.043 38.6687L160.019 38.6681C159.997 38.6675 159.966 38.6667 159.925 38.6654C159.844 38.663 159.725 38.659 159.574 38.653C159.271 38.641 158.839 38.6208 158.32 38.5882C157.284 38.5229 155.9 38.4077 154.515 38.2076C153.133 38.008 151.734 37.7219 150.676 37.3101C150.147 37.1045 149.687 36.8616 149.355 36.5705C149.021 36.2772 148.799 35.9172 148.799 35.4874V30.1033C148.799 29.0909 149.615 28.4036 150.665 27.9371C151.73 27.4639 153.134 27.1696 154.518 26.9851C155.906 26.8001 157.291 26.7232 158.329 26.6924C158.848 26.6771 159.28 26.6732 159.583 26.6732C159.735 26.6732 159.854 26.6742 159.936 26.6751C159.977 26.6756 160.008 26.6761 160.029 26.6765L160.053 26.6769L160.062 26.6771Z" fill="#222225"/>
<path fill-rule="evenodd" clip-rule="evenodd" d="M185.999 63.8764H183.551C183.281 63.8764 183.062 64.0956 183.062 64.3659V71.7079C183.062 71.9782 183.281 72.1973 183.551 72.1973H185.999C186.269 72.1973 186.488 71.9782 186.488 71.7079V64.3659C186.488 64.0956 186.269 63.8764 185.999 63.8764ZM183.551 63.387C183.011 63.387 182.572 63.8252 182.572 64.3659V71.7079C182.572 72.2485 183.011 72.6868 183.551 72.6868H185.999C186.539 72.6868 186.977 72.2485 186.977 71.7079V64.3659C186.977 63.8252 186.539 63.387 185.999 63.387H183.551Z" fill="#222225"/>
<path d="M185.513 67.7919C185.513 68.3326 185.074 68.7708 184.534 68.7708C183.993 68.7708 183.555 68.3326 183.555 67.7919C183.555 67.2513 183.993 66.813 184.534 66.813C185.074 66.813 185.513 67.2513 185.513 67.7919Z" fill="#222225"/>
<path fill-rule="evenodd" clip-rule="evenodd" d="M167.641 68.2813C167.641 65.2248 170.243 62.8972 173.269 62.8972C175.638 62.8972 177.507 63.5215 179.038 64.0421L179.103 64.0641C179.846 64.3168 180.497 64.5382 181.095 64.6571C181.707 64.7787 182.241 64.7881 182.737 64.6229L183.059 64.5155V71.7561L182.77 71.7037C181.499 71.4726 180.096 71.9333 178.489 72.4895C178.44 72.5063 178.392 72.5232 178.343 72.5401C176.799 73.0752 175.096 73.6655 173.269 73.6655C170.243 73.6655 167.641 71.3379 167.641 68.2813ZM173.269 63.3867C170.483 63.3867 168.13 65.5243 168.13 68.2813C168.13 71.0384 170.483 73.176 173.269 73.176C175.012 73.176 176.646 72.6099 178.209 72.0685C178.249 72.0547 178.289 72.0408 178.329 72.027C179.798 71.5185 181.23 71.0336 182.569 71.1802V65.1738C182.064 65.2783 181.542 65.2449 181 65.1372C180.369 65.0118 179.691 64.781 178.962 64.5332C178.935 64.524 178.908 64.5148 178.881 64.5055C177.353 63.986 175.551 63.3867 173.269 63.3867Z" fill="#222225"/>
<path fill-rule="evenodd" clip-rule="evenodd" d="M174.012 72.197C176.654 72.197 178.662 70.3758 178.662 68.2813C178.662 66.1868 176.654 64.3656 174.012 64.3656C171.371 64.3656 169.363 66.1868 169.363 68.2813C169.363 70.3758 171.371 72.197 174.012 72.197ZM174.012 72.6865C176.851 72.6865 179.152 70.7142 179.152 68.2813C179.152 65.8484 176.851 63.8761 174.012 63.8761C171.174 63.8761 168.873 65.8484 168.873 68.2813C168.873 70.7142 171.174 72.6865 174.012 72.6865Z" fill="#222225"/>
<path fill-rule="evenodd" clip-rule="evenodd" d="M174.742 68.7709C175.37 68.7709 175.721 68.3624 175.721 68.0367C175.721 67.7109 175.37 67.3025 174.742 67.3025C174.114 67.3025 173.763 67.7109 173.763 68.0367C173.763 68.3624 174.114 68.7709 174.742 68.7709ZM174.742 69.2603C175.553 69.2603 176.21 68.7125 176.21 68.0367C176.21 67.3608 175.553 66.813 174.742 66.813C173.931 66.813 173.273 67.3608 173.273 68.0367C173.273 68.7125 173.931 69.2603 174.742 69.2603Z" fill="#222225"/>
<path fill-rule="evenodd" clip-rule="evenodd" d="M186.001 82.4757H173.765L173.765 106.459H186.001V82.4757ZM173.765 81.9862C173.495 81.9862 173.275 82.2053 173.275 82.4757V106.459C173.275 106.73 173.495 106.949 173.765 106.949H186.001C186.272 106.949 186.491 106.73 186.491 106.459V82.4757C186.491 82.2053 186.272 81.9862 186.001 81.9862H173.765Z" fill="#222225"/>
<path fill-rule="evenodd" clip-rule="evenodd" d="M184.044 83.9448H175.234V93.7341H184.044V83.9448ZM175.234 83.4553C174.963 83.4553 174.744 83.6745 174.744 83.9448V93.7341C174.744 94.0044 174.963 94.2236 175.234 94.2236H184.044C184.314 94.2236 184.533 94.0044 184.533 93.7341V83.9448C184.533 83.6745 184.314 83.4553 184.044 83.4553H175.234Z" fill="#222225"/>
<path d="M181.746 91.8772L181.704 91.9192C181.513 92.1104 181.513 92.4203 181.704 92.6114L184.438 95.3455C184.629 95.5366 184.939 95.5366 185.13 95.3455L185.172 95.3035C185.363 95.1124 185.363 94.8024 185.172 94.6113L182.438 91.8772C182.247 91.6861 181.937 91.6861 181.746 91.8772Z" fill="#222225"/>
<path d="M174.744 96.1809H175.234V104.012H174.744V96.1809Z" fill="#222225"/>
<path d="M175.721 96.1809H176.21V104.012H175.721V96.1809Z" fill="#222225"/>
<path d="M176.695 96.1809H177.185V104.991H176.695V96.1809Z" fill="#222225"/>
<path d="M177.688 96.1809H178.177V104.991H177.688V96.1809Z" fill="#222225"/>
<path d="M178.66 96.1809H179.15V104.991H178.66V96.1809Z" fill="#222225"/>
<path d="M179.646 96.1809H180.136V104.991H179.646V96.1809Z" fill="#222225"/>
<path d="M180.621 96.1809H181.111V104.991H180.621V96.1809Z" fill="#222225"/>
<path d="M181.596 96.1809H182.085V104.991H181.596V96.1809Z" fill="#222225"/>
<path d="M182.572 96.1809H183.062V104.991H182.572V96.1809Z" fill="#222225"/>
<path d="M183.557 96.1809H184.046V104.012H183.557V96.1809Z" fill="#222225"/>
<path d="M184.533 96.1809H185.023V104.012H184.533V96.1809Z" fill="#222225"/>
<path fill-rule="evenodd" clip-rule="evenodd" d="M187.475 129.464H172.302V145.617H187.475V129.464ZM171.812 128.975V146.106H187.965V128.975H171.812Z" fill="#222225"/>
<path d="M179.646 129.465H180.136V146.107H179.646V129.465Z" fill="#222225"/>
<path d="M172.299 137.296H187.472V137.786H172.299V137.296Z" fill="#222225"/>
<path fill-rule="evenodd" clip-rule="evenodd" d="M179.55 137.541L172.121 129.632L172.478 129.297L179.886 137.184L187.295 129.297L187.651 129.632L180.222 137.541L187.651 145.45L187.295 145.785L179.886 137.898L172.478 145.785L172.121 145.45L179.55 137.541Z" fill="#222225"/>
<path fill-rule="evenodd" clip-rule="evenodd" d="M179.82 129.632L172.478 137.464L172.121 137.129L179.463 129.297L179.82 129.632ZM187.295 137.464L179.953 129.632L180.31 129.297L187.652 137.129L187.295 137.464ZM179.463 145.784L172.121 137.953L172.478 137.618L179.82 145.45L179.463 145.784ZM187.652 137.953L180.31 145.784L179.953 145.45L187.295 137.618L187.652 137.953Z" fill="#222225"/>
<path fill-rule="evenodd" clip-rule="evenodd" d="M175.967 135.828C177.184 135.828 178.17 134.842 178.17 133.626C178.17 132.409 177.184 131.423 175.967 131.423C174.751 131.423 173.765 132.409 173.765 133.626C173.765 134.842 174.751 135.828 175.967 135.828ZM175.967 136.318C177.454 136.318 178.66 135.112 178.66 133.626C178.66 132.139 177.454 130.933 175.967 130.933C174.481 130.933 173.275 132.139 173.275 133.626C173.275 135.112 174.481 136.318 175.967 136.318Z" fill="#222225"/>
<path fill-rule="evenodd" clip-rule="evenodd" d="M184.29 143.659C185.506 143.659 186.492 142.673 186.492 141.457C186.492 140.24 185.506 139.254 184.29 139.254C183.073 139.254 182.087 140.24 182.087 141.457C182.087 142.673 183.073 143.659 184.29 143.659ZM184.29 144.149C185.777 144.149 186.982 142.943 186.982 141.457C186.982 139.97 185.777 138.765 184.29 138.765C182.803 138.765 181.598 139.97 181.598 141.457C181.598 142.943 182.803 144.149 184.29 144.149Z" fill="#222225"/>
<path fill-rule="evenodd" clip-rule="evenodd" d="M184.048 134.849C184.859 134.849 185.516 134.191 185.516 133.38C185.516 132.569 184.859 131.912 184.048 131.912C183.237 131.912 182.579 132.569 182.579 133.38C182.579 134.191 183.237 134.849 184.048 134.849ZM184.048 135.338C185.129 135.338 186.006 134.462 186.006 133.38C186.006 132.299 185.129 131.423 184.048 131.423C182.966 131.423 182.09 132.299 182.09 133.38C182.09 134.462 182.966 135.338 184.048 135.338Z" fill="#222225"/>
<path fill-rule="evenodd" clip-rule="evenodd" d="M175.72 143.17C176.531 143.17 177.188 142.512 177.188 141.701C177.188 140.89 176.531 140.233 175.72 140.233C174.909 140.233 174.251 140.89 174.251 141.701C174.251 142.512 174.909 143.17 175.72 143.17ZM175.72 143.659C176.801 143.659 177.677 142.782 177.677 141.701C177.677 140.62 176.801 139.743 175.72 139.743C174.638 139.743 173.762 140.62 173.762 141.701C173.762 142.782 174.638 143.659 175.72 143.659Z" fill="#222225"/>
<path fill-rule="evenodd" clip-rule="evenodd" d="M131.643 90.4289L111.469 77.7893L111.729 77.3745L131.92 90.0244C132.439 89.2448 132.88 88.4691 133.266 87.6538C134.141 85.8076 134.742 83.747 135.343 80.9566L135.822 81.0597C135.217 83.8646 134.607 85.9674 133.709 87.8633C132.81 89.7613 131.628 91.4407 129.892 93.4068L129.525 93.0829C130.122 92.4073 130.65 91.7683 131.122 91.1445L111.47 79.0138L111.727 78.5973L131.415 90.75C131.492 90.6426 131.569 90.5356 131.643 90.4289Z" fill="#222225"/>
<path fill-rule="evenodd" clip-rule="evenodd" d="M129.622 48.0592L141.744 66.4585L142.153 66.1892L130.038 47.8009C130.711 47.3964 131.389 47.0546 132.097 46.7527C133.957 45.9597 136.035 45.4379 138.823 44.7808L138.711 44.3044C135.928 44.9602 133.81 45.4904 131.905 46.3024C129.994 47.1173 128.304 48.2127 126.365 49.9911L126.696 50.3518C127.381 49.7238 128.032 49.1842 128.671 48.7139L140.522 66.4597L140.929 66.1879L129.069 48.4288C129.254 48.3002 129.438 48.1772 129.622 48.0592Z" fill="#222225"/>
<path fill-rule="evenodd" clip-rule="evenodd" d="M118.063 1.64351L95.0693 17.1744L95.3433 17.5801L118.321 2.05964C119.008 3.17088 119.548 4.09479 120.024 5.11431C120.719 6.59996 121.281 8.29462 121.955 11.0678L122.431 10.9522C121.753 8.16355 121.181 6.43403 120.468 4.90704C119.826 3.53545 119.073 2.33209 118.038 0.680785C117.924 0.498345 117.806 0.31044 117.685 0.116234L117.269 0.37565C117.384 0.55843 117.495 0.735335 117.602 0.907077L95.072 15.7043L95.3407 16.1134L117.862 1.32202C117.93 1.43115 117.997 1.53824 118.063 1.64351Z" fill="#222225"/>
<path fill-rule="evenodd" clip-rule="evenodd" d="M49.3809 52.4065L62.7043 34.3632L63.098 34.6539L49.7951 52.6695C50.6945 53.2159 51.6472 53.6406 52.6596 54.0029C54.0159 54.4883 55.4615 54.8572 57.0299 55.2574C57.9826 55.5004 58.9806 55.7551 60.0314 56.0544L59.8973 56.5252C58.8785 56.2349 57.8933 55.9833 56.9442 55.7409C55.3558 55.3353 53.8687 54.9555 52.4947 54.4637C50.2797 53.671 48.3124 52.5749 46.5646 50.5774L46.933 50.255C47.4841 50.8849 48.0578 51.4218 48.6563 51.8863L61.48 34.364L61.875 34.6531L49.0491 52.1784C49.1589 52.2566 49.2695 52.3326 49.3809 52.4065Z" fill="#222225"/>
<path fill-rule="evenodd" clip-rule="evenodd" d="M82.1098 76.0678L100.718 64.0822L100.453 63.6707L81.789 75.6922C81.0018 74.7527 80.3223 73.8077 79.7098 72.7918C78.42 70.6526 77.4209 68.1885 76.3454 64.7817L75.8786 64.929C76.9593 68.352 77.9721 70.8577 79.2906 73.0445C80.6101 75.2331 82.2293 77.0915 84.5103 79.2285L84.845 78.8713C84.1161 78.1884 83.4574 77.5362 82.8563 76.8942L100.718 65.3054L100.452 64.8948L82.5197 76.5291C82.3799 76.3751 82.2433 76.2214 82.1098 76.0678Z" fill="#222225"/>
<path fill-rule="evenodd" clip-rule="evenodd" d="M73.3673 69.815L65.2177 64.8195L65.4735 64.4022L73.6688 69.4257C73.9192 69.0884 74.1451 68.7462 74.3539 68.3852C74.9409 67.3699 75.3987 66.1947 75.8788 64.5426L76.3489 64.6792C75.8632 66.3501 75.3924 67.567 74.7776 68.6302C74.1622 69.6945 73.4089 70.5938 72.3716 71.636L72.0247 71.2907C72.3672 70.9466 72.6761 70.6205 72.9574 70.3008L64.9758 65.5554L65.2259 65.1347L73.2794 69.9228C73.3091 69.8868 73.3383 69.8509 73.3673 69.815Z" fill="#222225"/>
<path fill-rule="evenodd" clip-rule="evenodd" d="M130.176 190.928L113.43 201.454L113.69 201.868L130.464 191.325C130.85 191.875 131.161 192.399 131.429 192.955C132.108 194.36 132.517 195.981 133.145 198.778L133.622 198.671C132.997 195.883 132.577 194.207 131.87 192.742C131.161 191.273 130.169 190.028 128.426 188.087L128.061 188.414C128.626 189.043 129.107 189.594 129.523 190.099L112.695 200.72L112.957 201.134L129.833 190.482C129.953 190.634 130.067 190.782 130.176 190.928Z" fill="#222225"/>
<path d="M35.9403 148.224C35.3177 148.841 34.5365 149.149 33.5968 149.149C32.657 149.149 31.8758 148.841 31.2532 148.224C30.6365 147.607 30.3281 146.853 30.3281 145.96C30.3281 145.073 30.6394 144.321 31.262 143.704C31.8905 143.082 32.6746 142.771 33.6144 142.771C34.5542 142.771 35.3324 143.079 35.9491 143.696C36.5717 144.312 36.883 145.067 36.883 145.96C36.883 146.847 36.5688 147.602 35.9403 148.224ZM32.2752 147.334C32.6276 147.71 33.074 147.898 33.6144 147.898C34.1548 147.898 34.5982 147.713 34.9448 147.343C35.2913 146.967 35.4646 146.506 35.4646 145.96C35.4646 145.419 35.2884 144.961 34.936 144.585C34.5835 144.21 34.1371 144.022 33.5968 144.022C33.0564 144.022 32.6129 144.21 32.2664 144.585C31.9199 144.955 31.7466 145.414 31.7466 145.96C31.7466 146.5 31.9228 146.958 32.2752 147.334Z" fill="#323232"/>
<path d="M39.4434 144.101V145.176H41.0733C41.7606 145.176 42.2921 145.349 42.668 145.696C43.0498 146.036 43.2407 146.5 43.2407 147.088C43.2407 147.71 43.0381 148.192 42.6328 148.532C42.2275 148.873 41.6636 149.043 40.9412 149.043H38.0866V142.876H42.8178V144.101H39.4434ZM40.9324 146.303H39.4434V147.819H40.9412C41.5697 147.819 41.8839 147.557 41.8839 147.035C41.8839 146.547 41.5667 146.303 40.9324 146.303Z" fill="#323232"/>
<path d="M52.253 150.33V149.043H44.3589V142.876H45.7157V147.819H47.9094V142.876H49.2662V147.819H51.4688V142.876H52.8256V147.819H53.5569L53.3807 150.33H52.253Z" fill="#323232"/>
<path d="M53.9828 149.043L56.6259 142.832H57.877L60.5201 149.043H59.1017L58.5378 147.66H55.9299L55.3661 149.043H53.9828ZM56.4145 146.462H58.0532L57.2339 144.462L56.4145 146.462Z" fill="#323232"/>
<path d="M66.3529 142.876V149.043H64.9961V147.07H63.9301L62.6085 149.043H61.0227L62.5292 146.841C61.6482 146.512 61.2077 145.869 61.2077 144.911C61.2077 144.277 61.4133 143.781 61.8244 143.422C62.2414 143.058 62.8112 142.876 63.5336 142.876H66.3529ZM63.6217 145.872H64.9961V144.101H63.6482C63.3134 144.101 63.052 144.177 62.864 144.33C62.6761 144.483 62.5821 144.706 62.5821 145C62.5821 145.264 62.6731 145.475 62.8552 145.634C63.0432 145.792 63.2987 145.872 63.6217 145.872Z" fill="#323232"/>
<path d="M30.6012 158.343V152.176H31.958V154.872L34.4602 152.176H36.0989L33.588 154.793L36.2135 158.343H34.5835L32.6717 155.718L31.958 156.458V158.343H30.6012Z" fill="#323232"/>
<path d="M42.376 157.524C41.7534 158.141 40.9723 158.449 40.0325 158.449C39.0927 158.449 38.3115 158.141 37.6889 157.524C37.0722 156.907 36.7638 156.152 36.7638 155.26C36.7638 154.373 37.0751 153.621 37.6977 153.004C38.3262 152.382 39.1103 152.07 40.0501 152.07C40.9899 152.07 41.7681 152.379 42.3849 152.995C43.0075 153.612 43.3188 154.367 43.3188 155.26C43.3188 156.147 43.0045 156.901 42.376 157.524ZM38.7109 156.634C39.0633 157.01 39.5097 157.198 40.0501 157.198C40.5905 157.198 41.0339 157.013 41.3805 156.643C41.727 156.267 41.9003 155.806 41.9003 155.26C41.9003 154.719 41.7241 154.261 41.3717 153.885C41.0192 153.509 40.5729 153.321 40.0325 153.321C39.4921 153.321 39.0487 153.509 38.7021 153.885C38.3556 154.255 38.1823 154.713 38.1823 155.26C38.1823 155.8 38.3585 156.258 38.7109 156.634Z" fill="#323232"/>
<path d="M44.5223 158.343V152.176H45.9849L47.606 154.784L49.2271 152.176H50.6896V158.343H49.3416V154.317L47.606 156.951H47.5707L45.8527 154.343V158.343H44.5223Z" fill="#323232"/>
<path d="M52.1712 158.343V152.176H53.528V154.617H56.0301V152.176H57.3869V158.343H56.0301V155.868H53.528V158.343H52.1712Z" fill="#323232"/>
<path d="M58.3364 158.343L60.9795 152.132H62.2306L64.8737 158.343H63.4552L62.8913 156.96H60.2835L59.7196 158.343H58.3364ZM60.7681 155.762H62.4068L61.5874 153.762L60.7681 155.762Z" fill="#323232"/>
<path d="M67.2616 158.343V153.427H65.385V152.176H70.4951V153.427H68.6184V158.343H67.2616Z" fill="#323232"/>
<path d="M71.0099 158.343L73.653 152.132H74.9041L77.5472 158.343H76.1287L75.5649 156.96H72.957L72.3931 158.343H71.0099ZM73.4416 155.762H75.0803L74.2609 153.762L73.4416 155.762Z" fill="#323232"/>
<path d="M123.105 125.549V119.381H124.462V122.077L126.964 119.381H128.603L126.092 121.998L128.718 125.549H127.088L125.176 122.923L124.462 123.663V125.549H123.105Z" fill="#323232"/>
<path d="M132.149 122.641L133.638 119.381H135.109L132.739 124.148C132.475 124.676 132.181 125.058 131.858 125.293C131.541 125.528 131.162 125.646 130.722 125.646C130.258 125.646 129.814 125.525 129.391 125.284L129.92 124.289C130.143 124.424 130.387 124.491 130.651 124.491C130.957 124.491 131.215 124.327 131.427 123.998L128.96 119.381H130.475L132.149 122.641Z" fill="#323232"/>
<path d="M135.544 125.549L137.694 122.412L135.632 119.381H137.218L138.513 121.381L139.817 119.381H141.359L139.298 122.394L141.447 125.549H139.861L138.478 123.434L137.086 125.549H135.544Z" fill="#323232"/>
<path d="M142.464 125.549V119.381H143.821V121.822H146.323V119.381H147.68V125.549H146.323V123.073H143.821V125.549H142.464Z" fill="#323232"/>
<path d="M154.039 119.381V125.549H152.682V123.575H151.616L150.295 125.549H148.709L150.215 123.346C149.334 123.017 148.894 122.374 148.894 121.417C148.894 120.782 149.099 120.286 149.51 119.928C149.927 119.563 150.497 119.381 151.22 119.381H154.039ZM151.308 122.377H152.682V120.606H151.334C150.999 120.606 150.738 120.682 150.55 120.835C150.362 120.988 150.268 121.211 150.268 121.505C150.268 121.769 150.359 121.98 150.541 122.139C150.729 122.298 150.985 122.377 151.308 122.377Z" fill="#323232"/>
<path d="M30.2109 45.7659V44.8702L31.9216 43.4679C32.2594 43.1889 32.4918 42.9662 32.6191 42.7998C32.7464 42.6285 32.81 42.44 32.81 42.2344C32.81 42.024 32.7464 41.86 32.6191 41.7425C32.4918 41.6251 32.3254 41.5663 32.1199 41.5663C31.929 41.5663 31.7552 41.6202 31.5986 41.7279C31.4468 41.8306 31.2706 42.0068 31.0699 42.2565L30.277 41.6177C30.5462 41.2506 30.8228 40.9814 31.1067 40.8101C31.3954 40.6388 31.7576 40.5531 32.1933 40.5531C32.7268 40.5531 33.1551 40.7 33.4781 40.9937C33.8012 41.2824 33.9627 41.6691 33.9627 42.1537C33.9627 42.4327 33.9089 42.6848 33.8012 42.9099C33.6935 43.1302 33.554 43.326 33.3827 43.4973C33.2114 43.6637 32.9544 43.8791 32.6118 44.1434L31.7748 44.7895H34.0141V45.7659H30.2109Z" fill="#825946"/>
<path d="M34.7119 46.9553L34.6165 46.4928C35.0961 46.439 35.336 46.2236 35.336 45.8467V45.7659H34.8808V44.5912H36.0702V45.5824C36.0702 46.0523 35.9552 46.3949 35.7251 46.6103C35.5 46.8305 35.1622 46.9456 34.7119 46.9553Z" fill="#825946"/>
<path d="M39.0153 45.854C38.3937 45.854 37.8993 45.6705 37.5322 45.3034C37.126 44.8971 36.9228 44.2437 36.9228 43.3431C36.9228 42.511 37.1137 41.8355 37.4955 41.3167C37.8773 40.7979 38.4377 40.5385 39.1768 40.5385C39.774 40.5385 40.3099 40.7269 40.7847 41.1038L40.19 41.9775C40.004 41.8355 39.8327 41.7327 39.6761 41.6691C39.5243 41.6006 39.3457 41.5663 39.1401 41.5663C38.8366 41.5663 38.5968 41.6765 38.4206 41.8967C38.2493 42.1121 38.144 42.3984 38.1049 42.7557C38.4377 42.5355 38.7926 42.4253 39.1695 42.4253C39.6981 42.4253 40.1313 42.5697 40.469 42.8585C40.8067 43.1473 40.9756 43.5536 40.9756 44.0773C40.9756 44.5961 40.7896 45.022 40.4176 45.3548C40.0456 45.6876 39.5782 45.854 39.0153 45.854ZM38.3178 44.672C38.4793 44.8139 38.6971 44.8849 38.9712 44.8849C39.2453 44.8849 39.4607 44.8139 39.6173 44.672C39.774 44.53 39.8523 44.344 39.8523 44.114C39.8523 43.8937 39.7715 43.7151 39.61 43.578C39.4485 43.4361 39.2307 43.3651 38.9566 43.3651C38.6825 43.3651 38.4671 43.4336 38.3105 43.5707C38.1538 43.7077 38.0755 43.8913 38.0755 44.1213C38.0755 44.3416 38.1563 44.5251 38.3178 44.672Z" fill="#825946"/>
<path d="M91.9992 45.7659V44.6573H89.4882L89.3047 43.857L92.124 40.5898H93.0785V43.7396H93.7686V44.6573H93.0785V45.7659H91.9992ZM90.6336 43.7396H91.9992V42.139L90.6336 43.7396Z" fill="#825946"/>
<path d="M94.4254 46.9553L94.3299 46.4928C94.8096 46.439 95.0494 46.2236 95.0494 45.8467V45.7659H94.5942V44.5912H95.7836V45.5824C95.7836 46.0523 95.6686 46.3949 95.4386 46.6103C95.2134 46.8305 94.8757 46.9456 94.4254 46.9553Z" fill="#825946"/>
<path d="M98.7288 45.854C98.1071 45.854 97.6128 45.6705 97.2457 45.3034C96.8394 44.8971 96.6363 44.2437 96.6363 43.3431C96.6363 42.511 96.8272 41.8355 97.209 41.3167C97.5907 40.7979 98.1512 40.5385 98.8903 40.5385C99.4874 40.5385 100.023 40.7269 100.498 41.1038L99.9035 41.9775C99.7175 41.8355 99.5462 41.7327 99.3895 41.6691C99.2378 41.6006 99.0591 41.5663 98.8536 41.5663C98.5501 41.5663 98.3103 41.6765 98.1341 41.8967C97.9627 42.1121 97.8575 42.3984 97.8184 42.7557C98.1512 42.5355 98.5061 42.4253 98.8829 42.4253C99.4116 42.4253 99.8447 42.5697 100.182 42.8585C100.52 43.1473 100.689 43.5536 100.689 44.0773C100.689 44.5961 100.503 45.022 100.131 45.3548C99.7591 45.6876 99.2916 45.854 98.7288 45.854ZM98.0313 44.672C98.1928 44.8139 98.4106 44.8849 98.6847 44.8849C98.9588 44.8849 99.1742 44.8139 99.3308 44.672C99.4874 44.53 99.5657 44.344 99.5657 44.114C99.5657 43.8937 99.485 43.7151 99.3235 43.578C99.1619 43.4361 98.9441 43.3651 98.67 43.3651C98.3959 43.3651 98.1806 43.4336 98.0239 43.5707C97.8673 43.7077 97.789 43.8913 97.789 44.1213C97.789 44.3416 97.8697 44.5251 98.0313 44.672Z" fill="#825946"/>
<path d="M104.023 45.7659V44.6573H101.512L101.329 43.857L104.148 40.5898H105.102V43.7396H105.793V44.6573H105.102V45.7659H104.023ZM102.658 43.7396H104.023V42.139L102.658 43.7396Z" fill="#825946"/>
<path d="M149.129 60.5381C148.292 60.5381 147.624 60.242 147.125 59.6497L147.903 58.9082C148.27 59.3193 148.684 59.5249 149.144 59.5249C149.359 59.5249 149.533 59.4686 149.665 59.356C149.802 59.2386 149.871 59.0819 149.871 58.8861C149.871 58.6757 149.783 58.5142 149.607 58.4016C149.43 58.289 149.183 58.2327 148.865 58.2327H148.395L148.219 57.5132L149.445 56.2797H147.426V55.3106H150.899V56.1623L149.599 57.4031C150.519 57.5597 150.98 58.0443 150.98 58.8568C150.98 59.3511 150.811 59.755 150.473 60.0682C150.14 60.3815 149.692 60.5381 149.129 60.5381Z" fill="#825946"/>
<path d="M151.692 61.6394L151.597 61.1768C152.077 61.123 152.316 60.9076 152.316 60.5308V60.45H151.861V59.2753H153.051V60.2664C153.051 60.7363 152.936 61.079 152.706 61.2943C152.48 61.5146 152.143 61.6296 151.692 61.6394Z" fill="#825946"/>
<path d="M153.867 60.45V59.5543L155.577 58.152C155.915 57.873 156.148 57.6502 156.275 57.4838C156.402 57.3125 156.466 57.1241 156.466 56.9185C156.466 56.708 156.402 56.5441 156.275 56.4266C156.148 56.3091 155.981 56.2504 155.776 56.2504C155.585 56.2504 155.411 56.3042 155.254 56.4119C155.103 56.5147 154.926 56.6909 154.726 56.9405L153.933 56.3018C154.202 55.9347 154.478 55.6655 154.762 55.4942C155.051 55.3228 155.413 55.2372 155.849 55.2372C156.382 55.2372 156.811 55.384 157.134 55.6777C157.457 55.9665 157.618 56.3532 157.618 56.8377C157.618 57.1167 157.565 57.3688 157.457 57.594C157.349 57.8142 157.21 58.01 157.038 58.1813C156.867 58.3477 156.61 58.5631 156.267 58.8274L155.43 59.4735H157.67V60.45H153.867Z" fill="#825946"/>
<path d="M158.662 60.45L160.96 56.2871H158.545V55.3106H162.245V56.1623L159.94 60.45H158.662Z" fill="#825946"/>
<path d="M31.158 174.985V170.955L30.2623 171.175L30.0273 170.25L31.5031 169.809H32.274V174.985H31.158Z" fill="#825946"/>
<path d="M35.1878 175.073C34.4439 175.073 33.8027 174.816 33.2642 174.302L33.947 173.488C34.3582 173.86 34.7669 174.046 35.1732 174.046C35.4424 174.046 35.6528 173.982 35.8046 173.855C35.9563 173.727 36.0322 173.549 36.0322 173.319C36.0322 173.103 35.949 172.934 35.7825 172.812C35.6161 172.685 35.3959 172.621 35.1218 172.621C34.8477 172.621 34.5613 172.685 34.2627 172.812L33.6093 172.379L33.7562 169.846H36.9132V170.837H34.7253L34.6666 171.725C34.9015 171.667 35.1267 171.637 35.342 171.637C35.8755 171.637 36.3087 171.774 36.6416 172.049C36.9744 172.323 37.1408 172.739 37.1408 173.297C37.1408 173.84 36.9622 174.273 36.6048 174.596C36.2524 174.914 35.7801 175.073 35.1878 175.073Z" fill="#825946"/>
<path d="M37.8595 176.175L37.764 175.712C38.2437 175.658 38.4835 175.443 38.4835 175.066V174.985H38.0283V173.811H39.2177V174.802C39.2177 175.272 39.1027 175.614 38.8727 175.83C38.6475 176.05 38.3098 176.165 37.8595 176.175Z" fill="#825946"/>
<path d="M43.8549 174.317C43.4291 174.821 42.8784 175.073 42.203 175.073C41.5275 175.073 40.9793 174.821 40.5584 174.317C40.1374 173.813 39.927 173.179 39.927 172.416C39.927 171.657 40.1399 171.026 40.5657 170.521C40.9916 170.012 41.5422 169.758 42.2177 169.758C42.8882 169.758 43.434 170.01 43.8549 170.514C44.2808 171.018 44.4937 171.652 44.4937 172.416C44.4937 173.174 44.2808 173.808 43.8549 174.317ZM41.3954 173.59C41.6058 173.899 41.8799 174.053 42.2177 174.053C42.5554 174.053 42.8246 173.901 43.0253 173.598C43.2309 173.289 43.3337 172.895 43.3337 172.416C43.3337 171.946 43.2284 171.557 43.0179 171.248C42.8075 170.935 42.5358 170.778 42.203 170.778C41.8701 170.778 41.6009 170.933 41.3954 171.241C41.1898 171.544 41.087 171.936 41.087 172.416C41.087 172.89 41.1898 173.282 41.3954 173.59Z" fill="#825946"/>
<path d="M124.652 140.233V136.202L123.756 136.422L123.521 135.497L124.997 135.057H125.768V140.233H124.652Z" fill="#825946"/>
<path d="M127.75 140.233V136.202L126.854 136.422L126.619 135.497L128.095 135.057H128.866V140.233H127.75Z" fill="#825946"/>
<path d="M129.826 141.422L129.731 140.96C130.211 140.906 130.45 140.691 130.45 140.314V140.233H129.995V139.058H131.185V140.049C131.185 140.519 131.07 140.862 130.84 141.077C130.614 141.298 130.277 141.413 129.826 141.422Z" fill="#825946"/>
<path d="M133.88 140.321C133.136 140.321 132.495 140.064 131.957 139.55L132.639 138.735C133.051 139.107 133.459 139.293 133.865 139.293C134.135 139.293 134.345 139.23 134.497 139.102C134.649 138.975 134.724 138.796 134.724 138.566C134.724 138.351 134.641 138.182 134.475 138.06C134.308 137.932 134.088 137.869 133.814 137.869C133.54 137.869 133.254 137.932 132.955 138.06L132.302 137.627L132.448 135.094H135.606V136.085H133.418L133.359 136.973C133.594 136.914 133.819 136.885 134.034 136.885C134.568 136.885 135.001 137.022 135.334 137.296C135.667 137.57 135.833 137.986 135.833 138.544C135.833 139.088 135.654 139.521 135.297 139.844C134.945 140.162 134.472 140.321 133.88 140.321Z" fill="#825946"/>
<path d="M130.034 224.02C129.197 224.02 128.529 223.724 128.029 223.131L128.808 222.39C129.175 222.801 129.588 223.006 130.048 223.006C130.264 223.006 130.437 222.95 130.57 222.838C130.707 222.72 130.775 222.563 130.775 222.368C130.775 222.157 130.687 221.996 130.511 221.883C130.335 221.771 130.088 221.714 129.769 221.714H129.299L129.123 220.995L130.349 219.761H128.33V218.792H131.803V219.644L130.504 220.885C131.424 221.041 131.884 221.526 131.884 222.338C131.884 222.833 131.715 223.236 131.377 223.55C131.044 223.863 130.597 224.02 130.034 224.02Z" fill="#825946"/>
<path d="M132.597 225.121L132.501 224.658C132.981 224.605 133.221 224.389 133.221 224.012V223.932H132.766V222.757H133.955V223.748C133.955 224.218 133.84 224.56 133.61 224.776C133.385 224.996 133.047 225.111 132.597 225.121Z" fill="#825946"/>
<path d="M136.695 224.02C135.858 224.02 135.189 223.724 134.69 223.131L135.468 222.39C135.835 222.801 136.249 223.006 136.709 223.006C136.925 223.006 137.098 222.95 137.23 222.838C137.368 222.72 137.436 222.563 137.436 222.368C137.436 222.157 137.348 221.996 137.172 221.883C136.996 221.771 136.748 221.714 136.43 221.714H135.96L135.784 220.995L137.01 219.761H134.991V218.792H138.464V219.644L137.164 220.885C138.085 221.041 138.545 221.526 138.545 222.338C138.545 222.833 138.376 223.236 138.038 223.55C137.705 223.863 137.257 224.02 136.695 224.02Z" fill="#825946"/>
<path d="M139.331 223.932V223.036L141.042 221.633C141.379 221.354 141.612 221.132 141.739 220.965C141.866 220.794 141.93 220.606 141.93 220.4C141.93 220.19 141.866 220.026 141.739 219.908C141.612 219.791 141.445 219.732 141.24 219.732C141.049 219.732 140.875 219.786 140.719 219.893C140.567 219.996 140.391 220.172 140.19 220.422L139.397 219.783C139.666 219.416 139.943 219.147 140.227 218.976C140.515 218.804 140.878 218.719 141.313 218.719C141.847 218.719 142.275 218.866 142.598 219.159C142.921 219.448 143.083 219.835 143.083 220.319C143.083 220.598 143.029 220.85 142.921 221.075C142.814 221.296 142.674 221.492 142.503 221.663C142.331 221.829 142.074 222.045 141.732 222.309L140.895 222.955H143.134V223.932H139.331Z" fill="#825946"/>
<path d="M148.214 224.967C147.533 224.595 147.024 224.154 146.687 223.645C146.349 223.131 146.18 222.524 146.18 221.824C146.18 221.124 146.349 220.52 146.687 220.011C147.024 219.497 147.533 219.054 148.214 218.682L148.706 219.424C148.206 219.771 147.844 220.131 147.619 220.503C147.399 220.87 147.289 221.31 147.289 221.824C147.289 222.338 147.399 222.781 147.619 223.153C147.844 223.52 148.206 223.878 148.706 224.225L148.214 224.967Z" fill="#825946"/>
<path d="M150.323 223.932V219.901L149.427 220.121L149.192 219.196L150.668 218.755H151.439V223.932H150.323Z" fill="#825946"/>
<path d="M152.4 225.121L152.305 224.658C152.784 224.605 153.024 224.389 153.024 224.012V223.932H152.569V222.757H153.758V223.748C153.758 224.218 153.643 224.56 153.413 224.776C153.188 224.996 152.85 225.111 152.4 225.121Z" fill="#825946"/>
<path d="M158.395 223.263C157.97 223.768 157.419 224.02 156.744 224.02C156.068 224.02 155.52 223.768 155.099 223.263C154.678 222.759 154.468 222.125 154.468 221.362C154.468 220.603 154.68 219.972 155.106 219.468C155.532 218.959 156.083 218.704 156.758 218.704C157.429 218.704 157.975 218.956 158.395 219.46C158.821 219.964 159.034 220.598 159.034 221.362C159.034 222.121 158.821 222.754 158.395 223.263ZM155.936 222.537C156.146 222.845 156.42 222.999 156.758 222.999C157.096 222.999 157.365 222.847 157.566 222.544C157.771 222.236 157.874 221.842 157.874 221.362C157.874 220.892 157.769 220.503 157.558 220.194C157.348 219.881 157.076 219.725 156.744 219.725C156.411 219.725 156.141 219.879 155.936 220.187C155.73 220.491 155.628 220.882 155.628 221.362C155.628 221.837 155.73 222.228 155.936 222.537Z" fill="#825946"/>
<path d="M160.234 224.967L159.742 224.225C160.242 223.878 160.602 223.52 160.822 223.153C161.047 222.781 161.159 222.338 161.159 221.824C161.159 221.31 161.047 220.87 160.822 220.503C160.602 220.131 160.242 219.771 159.742 219.424L160.234 218.682C160.915 219.054 161.424 219.497 161.762 220.011C162.099 220.52 162.268 221.124 162.268 221.824C162.268 222.524 162.099 223.131 161.762 223.645C161.424 224.154 160.915 224.595 160.234 224.967Z" fill="#825946"/>
<circle cx="65.3414" cy="110.131" r="23.2496" fill="url(#paint0_linear)"/>
<path d="M53.2018 108.582C51.6394 108.582 50.3923 108.029 49.4603 106.924L50.9131 105.54C51.5983 106.307 52.3704 106.691 53.2292 106.691C53.6312 106.691 53.9556 106.586 54.2023 106.376C54.4581 106.156 54.586 105.864 54.586 105.499C54.586 105.106 54.4216 104.804 54.0926 104.594C53.7637 104.384 53.3023 104.279 52.7084 104.279H51.8313L51.5024 102.936L53.7911 100.633H50.0222V98.8242H56.5047V100.414L54.0789 102.73C55.7966 103.023 56.6555 103.927 56.6555 105.444C56.6555 106.367 56.3403 107.12 55.7098 107.705C55.0885 108.29 54.2525 108.582 53.2018 108.582Z" fill="white"/>
<path d="M57.8457 108.418L62.1354 100.647H57.6265V98.8242H64.5338V100.414L60.2304 108.418H57.8457Z" fill="white"/>
<path d="M63.8597 110.638L63.6816 109.775C64.577 109.674 65.0247 109.272 65.0247 108.569V108.418H64.175V106.225H66.3952V108.075C66.3952 108.952 66.1805 109.592 65.751 109.994C65.3307 110.405 64.7003 110.62 63.8597 110.638Z" fill="white"/>
<path d="M74.5618 107.171C73.7669 108.112 72.739 108.582 71.4782 108.582C70.2173 108.582 69.194 108.112 68.4083 107.171C67.6225 106.23 67.2296 105.046 67.2296 103.621C67.2296 102.205 67.6271 101.026 68.422 100.085C69.2169 99.1349 70.2447 98.6598 71.5056 98.6598C72.7573 98.6598 73.7761 99.1303 74.5618 100.071C75.3567 101.012 75.7542 102.196 75.7542 103.621C75.7542 105.037 75.3567 106.22 74.5618 107.171ZM69.9706 105.814C70.3635 106.389 70.8752 106.677 71.5056 106.677C72.136 106.677 72.6385 106.394 73.0131 105.828C73.3969 105.252 73.5888 104.516 73.5888 103.621C73.5888 102.744 73.3923 102.018 72.9994 101.442C72.6066 100.857 72.0995 100.565 71.4782 100.565C70.8569 100.565 70.3544 100.853 69.9706 101.428C69.5869 101.995 69.395 102.726 69.395 103.621C69.395 104.507 69.5869 105.238 69.9706 105.814Z" fill="white"/>
<path d="M78.3838 108.418V100.894L76.7118 101.305L76.2732 99.578L79.0279 98.7557H80.4669V108.418H78.3838Z" fill="white"/>
<path d="M52.3118 122.777C50.7494 122.777 49.5023 122.224 48.5703 121.118L50.023 119.734C50.7083 120.502 51.4803 120.885 52.3392 120.885C52.7412 120.885 53.0656 120.78 53.3123 120.57C53.5681 120.351 53.696 120.059 53.696 119.693C53.696 119.3 53.5315 118.999 53.2026 118.789C52.8737 118.578 52.4123 118.473 51.8184 118.473H50.9413L50.6124 117.13L52.9011 114.828H49.1322V113.019H55.6147V114.609L53.1889 116.925C54.9066 117.217 55.7655 118.122 55.7655 119.638C55.7655 120.561 55.4502 121.315 54.8198 121.9C54.1985 122.484 53.3625 122.777 52.3118 122.777Z" fill="white"/>
<path d="M60.3892 122.749C59.3111 122.749 58.4249 122.494 57.7305 121.982C57.0361 121.47 56.6889 120.794 56.6889 119.954C56.6889 118.885 57.2051 118.112 58.2376 117.637C57.4244 117.144 57.0178 116.436 57.0178 115.513C57.0178 114.764 57.3285 114.138 57.9498 113.635C58.5802 113.133 59.3934 112.882 60.3892 112.882C61.3943 112.882 62.2074 113.133 62.8287 113.635C63.45 114.138 63.7607 114.773 63.7607 115.54C63.7607 116.445 63.3541 117.144 62.5409 117.637C63.0617 117.911 63.45 118.222 63.7059 118.569C63.9617 118.916 64.0896 119.369 64.0896 119.926C64.0896 120.794 63.7424 121.484 63.048 121.996C62.3628 122.498 61.4765 122.749 60.3892 122.749ZM59.3888 116.609C59.6446 116.829 59.9781 116.938 60.3892 116.938C60.8004 116.938 61.1293 116.829 61.376 116.609C61.6318 116.39 61.7598 116.102 61.7598 115.746C61.7598 115.435 61.6318 115.17 61.376 114.951C61.1293 114.732 60.8004 114.622 60.3892 114.622C59.969 114.622 59.6355 114.732 59.3888 114.951C59.1421 115.17 59.0187 115.44 59.0187 115.76C59.0187 116.098 59.1421 116.381 59.3888 116.609ZM60.3892 121.009C60.9009 121.009 61.3029 120.895 61.5953 120.666C61.8968 120.438 62.0476 120.145 62.0476 119.789C62.0476 119.424 61.8922 119.136 61.5816 118.926C61.2801 118.715 60.8826 118.61 60.3892 118.61C59.8959 118.61 59.4939 118.72 59.1832 118.939C58.8817 119.149 58.7309 119.442 58.7309 119.816C58.7309 120.155 58.8817 120.438 59.1832 120.666C59.4847 120.895 59.8867 121.009 60.3892 121.009Z" fill="white"/>
<path d="M64.7498 124.832L64.5716 123.969C65.467 123.869 65.9147 123.467 65.9147 122.763V122.612H65.065V120.419H67.2852V122.27C67.2852 123.147 67.0705 123.786 66.6411 124.188C66.2208 124.6 65.5903 124.814 64.7498 124.832Z" fill="white"/>
<path d="M75.4518 121.365C74.6569 122.306 73.6291 122.777 72.3682 122.777C71.1073 122.777 70.084 122.306 69.2983 121.365C68.5125 120.424 68.1197 119.241 68.1197 117.816C68.1197 116.399 68.5171 115.221 69.312 114.28C70.1069 113.329 71.1348 112.854 72.3956 112.854C73.6473 112.854 74.6661 113.325 75.4518 114.266C76.2467 115.207 76.6442 116.39 76.6442 117.816C76.6442 119.232 76.2467 120.415 75.4518 121.365ZM70.8607 120.008C71.2535 120.584 71.7652 120.872 72.3956 120.872C73.0261 120.872 73.5286 120.589 73.9032 120.022C74.2869 119.446 74.4788 118.711 74.4788 117.816C74.4788 116.938 74.2823 116.212 73.8895 115.636C73.4966 115.052 72.9895 114.759 72.3682 114.759C71.7469 114.759 71.2444 115.047 70.8607 115.623C70.4769 116.189 70.285 116.92 70.285 117.816C70.285 118.702 70.4769 119.433 70.8607 120.008Z" fill="white"/>
<path d="M79.2738 122.612V115.088L77.6018 115.499L77.1632 113.773L79.9179 112.95H81.357V122.612H79.2738Z" fill="white"/>
<rect x="45.5156" y="109.886" width="40.1362" height="0.978931" fill="white"/>
<path d="M32.8306 118.207V104.503L29.7851 105.251L28.9863 102.106L34.0038 100.608H36.6249V118.207H32.8306Z" fill="#825946"/>
<defs>
<linearGradient id="paint0_linear" x1="42.0918" y1="110.131" x2="88.591" y2="110.131" gradientUnits="userSpaceOnUse">
<stop stop-color="#725E55"/>
<stop offset="1" stop-color="#88563F"/>
</linearGradient>
</defs>
</svg>
